<svg width="50" height="50" viewBox="0 0 50 50" fill="none" xmlns="http://www.w3.org/2000/svg">
<path d="M49.4195 35.7737C47.4758 35.3819 46.0104 36.7858 44.1753 34.6937C43.6958 34.1474 43.0031 34.4554 42.7834 35.1207C41.2084 39.8959 37.932 37.5889 36.4307 34.2442C36.1399 33.5968 35.3164 33.6529 35.0136 34.2442C33.976 37.1931 31.9779 37.5562 29.019 35.3338C28.549 34.8562 27.778 35.0168 27.6013 35.7685C26.3131 41.2502 21.8115 39.7442 20.4246 35.2397C20.3549 35.0128 20.2046 34.9028 20.0486 34.883C19.7331 34.4243 19.0184 34.2868 18.7721 34.9302C16.9981 39.5626 13.7052 38.8535 11.6557 34.9364C11.2858 34.2294 10.522 34.4745 10.2795 35.1454C8.55583 39.911 3.53352 39.8016 3.62296 34.0728C3.63278 33.4384 2.81514 33.3138 2.67688 33.9242C1.05913 41.0637 8.57918 42.3018 11.1841 37.0611C13.8748 40.6154 17.9096 41.3449 19.8339 36.5614C21.4755 41.8076 26.8383 42.8395 28.8316 37.6194C31.3628 39.5839 33.774 39.2753 35.6763 36.4843C37.9962 40.3321 42.13 41.7497 43.9651 37.0016C45.6492 38.3254 46.7665 37.3993 49.2032 37.6262C50.1126 37.7113 50.3204 35.9556 49.4195 35.7737Z" fill="#00B2A0"/>
<path d="M46.3746 43.4666C45.6122 44.9217 45.3486 46.2258 43.7155 46.937C41.7052 47.8132 39.7043 45.7226 38.7136 44.0085C38.3718 43.4169 37.5428 43.3032 37.2235 44.0085C35.8242 47.1004 32.7251 46.3454 31.4027 43.3614C31.0776 42.6274 29.9781 42.7584 29.8431 43.5982C29.1 48.2238 25.7637 48.7134 23.5292 45.3607C23.773 44.458 22.5008 43.8436 22.154 44.7272C20.2783 49.5066 16.6163 48.9727 14.4909 44.7074C14.122 43.9672 13.2956 44.2268 13.0573 44.9251C11.3299 49.9885 8.63952 47.5798 7.12978 44.0945C6.83574 43.4154 5.99714 43.6506 5.81987 44.2934C4.9948 47.2869 3.63553 47.8459 1.34557 48.6203C0.914332 48.7664 0.980943 49.6358 1.45518 49.5624C4.07898 49.1561 5.51203 48.6138 6.58443 46.3439C8.7876 50.3406 11.8633 51.1569 13.9272 46.9515C16.6033 50.8431 20.9022 51.2867 23.0321 46.6568C25.398 50.3955 29.3656 50.2114 30.9545 46.1373C33.0043 48.9462 35.9877 49.3408 38.0518 46.1974C41.1235 49.7853 47.4059 50.5884 47.6298 43.8624C47.6577 43.0602 46.7119 42.8225 46.3746 43.4666Z" fill="#00B2A0"/>
<path d="M14.1105 7.50507C13.5962 7.67894 13.3935 8.12751 13.4091 8.58039C9.76496 9.20592 7.40574 13.383 7.12417 17.5844C6.7391 23.3329 10.9422 26.7096 15.4993 26.2808C20.1588 25.8427 23.19 21.0025 23.053 15.8006C22.9161 10.605 18.6793 5.95774 14.1105 7.50507ZM14.8693 23.6529C11.5247 23.9716 9.36105 21.3478 9.42501 17.5844C9.49215 13.6401 12.0937 11.039 15.1094 9.99916C15.1646 9.98005 15.2044 9.94737 15.2493 9.91839C18.1892 10.4511 20.4125 11.7506 20.7249 15.8C21.0491 20.0005 18.3943 23.3162 14.8693 23.6529Z" fill="#00B2A0"/>
<path d="M9.86943 7.3313C9.32089 6.63795 8.71317 6.02876 8.09086 5.42759C7.47385 4.83135 6.81942 3.67771 5.94951 3.77205C5.48881 3.822 5.17673 4.16143 5.14462 4.70711C5.08358 5.74266 5.96251 6.25135 6.60181 6.77946C7.33267 7.38279 8.09192 7.92261 8.77023 8.60856C9.52284 9.37005 10.5528 8.19483 9.86943 7.3313Z" fill="#00B2A0"/>
<path d="M4.82731 10.4497C5.11975 10.4907 4.86127 10.4414 4.78405 10.4133C4.66542 10.3699 4.54919 10.3178 4.43322 10.266C4.30186 10.2077 4.17182 10.1448 4.04205 10.0819C4.03329 10.0776 4.02851 10.0755 4.01551 10.0687C3.89184 9.79275 3.67928 9.57047 3.40567 9.47089C2.91711 9.29239 2.17404 8.86602 1.64594 9.05871C1.34739 9.16784 1.03451 9.45486 0.976388 9.83653C0.976388 9.83653 0.976122 9.83807 0.976122 9.83869C0.920923 10.2003 0.944807 10.6708 1.22266 10.9223C1.37738 11.0617 1.55836 11.1603 1.74705 11.2454C1.59419 11.2448 1.71759 11.2531 1.85585 11.2904C1.95378 11.3296 2.05038 11.3697 2.15122 11.4008C2.39431 11.4958 2.63713 11.5923 2.87889 11.6906C3.01768 11.7476 3.16072 11.7526 3.29899 11.7236C3.79604 11.8771 4.34034 12.051 4.82757 12.0165C5.71341 11.9536 5.67546 10.569 4.82731 10.4497Z" fill="#00B2A0"/>
<path d="M3.30907 19.2588C2.93701 19.6211 2.50285 19.905 2.07983 20.1772C1.86116 20.3181 1.63506 20.4639 1.40073 20.5666C1.26034 20.6279 1.03689 20.5765 1.34579 20.6421C1.1924 20.6098 1.04698 20.6064 0.894383 20.5873C-0.391911 20.426 -0.274878 23.1242 1.14304 22.7222C1.66531 22.5742 2.19899 21.9952 2.64297 21.6244C3.15807 21.1943 3.67237 20.7241 4.09698 20.1741C4.58236 19.5458 3.85601 18.7258 3.30907 19.2588Z" fill="#00B2A0"/>
<path d="M6.58669 24.6062C6.15094 25.3831 5.75367 26.1883 5.33915 26.9803C4.88986 27.8383 4.12875 28.478 4.02897 29.5047C3.96528 30.1601 4.58308 30.4847 5.03927 30.3987C5.97208 30.223 6.4272 28.8437 6.76821 27.9502C7.12011 27.0284 7.33639 26.0616 7.61822 25.1109C7.83477 24.3787 6.92187 24.0081 6.58669 24.6062Z" fill="#00B2A0"/>
<path d="M15.4027 27.3984C15.3108 26.8499 14.5808 26.8762 14.4738 27.3984C14.1931 28.7712 13.8643 30.1323 13.5885 31.5064C13.5219 31.8381 13.5792 32.222 13.8056 32.4606C13.7685 32.4029 13.7727 32.4143 13.8181 32.4942C14.088 33.0066 14.6551 32.948 14.9348 32.4942C14.6792 32.9085 15.1158 32.2935 15.1314 32.262C15.2344 32.0576 15.2432 31.8431 15.2541 31.6137C15.2769 31.1389 15.3249 30.6654 15.3639 30.1922C15.4406 29.2694 15.5566 28.3168 15.4027 27.3984Z" fill="#00B2A0"/>
<path d="M25.0978 28.2096C24.4304 27.0973 23.3705 26.3833 22.7638 25.2346C22.3485 24.4478 21.3974 25.1332 21.7182 25.9446C21.9964 26.6478 22.4212 27.2317 22.8599 27.8073C23.0693 28.082 23.2837 28.3502 23.4679 28.6486C23.7192 29.0559 23.8224 29.5134 24.3123 29.5926C24.5942 29.6383 24.9158 29.5735 25.058 29.2396C25.0713 29.2088 25.0846 29.178 25.0976 29.1468C25.2191 28.8626 25.2658 28.4899 25.0978 28.2096Z" fill="#00B2A0"/>
<path d="M28.981 19.9104C27.8576 19.9792 26.734 20.0452 25.6107 20.1102C24.5998 20.1688 24.5998 21.8736 25.6107 21.9325C26.7343 21.9979 27.8576 22.0639 28.981 22.132C30.2145 22.2075 30.2145 19.8355 28.981 19.9104Z" fill="#00B2A0"/>
<path d="M28.9813 7.09895C27.9623 7.07429 27.1386 8.49614 26.5279 9.32206C25.8716 10.2093 25.295 11.1709 24.6259 12.0464C24.1148 12.7154 24.9027 13.6419 25.4725 13.0299C26.1471 12.3048 26.7596 11.5079 27.4071 10.751C27.7728 10.3237 28.1512 9.89332 28.5663 9.53046C29.0766 9.08498 29.4776 8.94039 29.7045 8.20141C29.873 7.65295 29.4394 7.11005 28.9813 7.09895Z" fill="#00B2A0"/>
<path d="M24.085 1.29629C23.4818 1.74579 23.0795 2.47583 22.6649 3.14328C22.1817 3.92142 21.7223 4.70325 21.1634 5.41294C20.5305 6.21666 21.5151 7.37307 22.1947 6.61097C22.7223 6.01905 23.1893 5.37379 23.6471 4.70911C24.1386 3.99571 24.7723 3.34244 25.1768 2.56431C25.5828 1.78371 24.7654 0.78946 24.085 1.29629Z" fill="#00B2A0"/>
<path d="M16.5488 0.226596C16.2548 -0.075532 15.87 -0.075532 15.5759 0.226596C14.9987 0.819753 15.2649 1.85531 15.3129 2.64485C15.3681 3.55062 15.4273 4.45546 15.4982 5.36C15.5642 6.20349 16.5605 6.20349 16.6266 5.36C16.6974 4.45515 16.7566 3.55093 16.8118 2.64485C16.8598 1.85562 17.126 0.819445 16.5488 0.226596Z" fill="#00B2A0"/>
</svg>
